# xmcd CD database file
#
# Track frame offsets:
#	150
#	17957
#	37997
#
# Disc length: 742 seconds
#
# Revision: 0
# Processed by: cddbd v1.5.1PL0 Copyright (c) Steve Scherf et al.
# Submitted via: CDex 1.51
#
DISCID=1b02e403
DTITLE=加藤紀子 - Truth−トゥルース−
DYEAR=1995
DGENRE=JPop
TTITLE0=Truth−トゥルース−
TTITLE1=一人の夜
TTITLE2=Truth−トゥルース−（カラオケ）
EXTD=YEAR: 1995
EXTT0=
EXTT1=
EXTT2=
PLAYORDER=
